<?xml version="1.0" standalone="no"?><!DOCTYPE svg PUBLIC "-//W3C//DTD SVG 1.1//EN" "http://www.w3.org/Graphics/SVG/1.1/DTD/svg11.dtd"><svg class="icon" height="512" viewBox="0 0 1024 1024" version="1.1" xmlns="http://www.w3.org/2000/svg"><path d="M740.553904 814.329676c-33.296337-13.192464-99.689467-25.120121-229.200122-25.12012-91.159186 0-156.327418 6.752798-198.11515 17.417695-32.348756 8.255011-49.885154 18.957771-56.166207 29.188786l6.597255 19.234063c0 1.343601 0.553609 2.64627 1.461281 3.90903l0.356111 1.067308c0.196475 0.040932 0.356111 0.078795 0.591471 0.118704 16.311501 18.206664 117.939109 32.267914 242.313791 32.465412 9.400091 0.079818 18.564821 0 27.371394-0.156566 125.757169-1.857301 224.065172-17.891486 224.065172-37.403888l8.253988-23.856337c-4.502547-4.935406-12.638855-10.781554-27.528984-16.864087z m-229.200122 59.60247c-126.428458 0-229.04151-11.653411-229.04151-26.068725 0-14.45727 102.613052-26.108634 229.04151-26.108635 126.430504 0 228.963739 11.651364 228.963739 26.108635 0 14.415314-102.533234 26.068725-228.963739 26.068725zM954.191586 345.580736c-3.198855-4.739954-7.620561-8.452509-12.875238-10.862395-4.106528-1.972934-8.571213-3.080152-13.34903-3.080152-17.458627 0-31.676443 14.06125-31.676443 31.55774 0 7.544837 2.764973 14.298658 7.109931 19.748786a32.012088 32.012088 0 0 0 10.465353 8.45251c-15.165398 18.287505-33.254382 39.142485-53.081963 60.192917-56.166207 58.731636-124.928291 118.571513-184.135764 119.085212-31.517831-0.475837-55.255465-30.255071-75.832105-71.490218-20.459984-41.670052-37.442774-96.766904-51.30755-152.733566-14.141068-57.112766-24.88169-114.975615-32.347732-160.081929 4.740978-0.393973 9.163707-1.935072 12.876262-4.461615 7.543813-5.016247 12.440333-13.626345 12.440333-23.422455 0-12.797467-8.569166-23.500227-20.22053-26.975375-2.489704-0.712221-5.173836-1.303692-7.900947-1.303692-4.937452 0-9.477862 1.382487-13.547551 3.63376-8.688893 4.817726-14.730493 13.942547-14.730493 24.645307 0 7.584746 3.000334 14.455223 7.976672 19.551288a28.768207 28.768207 0 0 0 12.284791 7.426133c-14.497179 89.024569-42.38125 229.476415-83.775009 313.723168-20.458961 41.235147-44.234457 71.01438-75.754334 71.490217-59.166541-0.5137-128.049375-60.353576-184.133718-119.085212-19.828604-21.050432-37.996382-41.905412-53.0441-60.192917 4.108574-2.054799 7.503904-4.937452 10.387581-8.452509 4.383844-5.450129 7.14984-12.20395 7.149841-19.748787 0-17.496489-14.178931-31.55774-31.637558-31.557739a30.818913 30.818913 0 0 0-13.467733 3.080151c-5.095042 2.409886-9.55768 6.122441-12.757558 10.862396-3.357468 5.055133-5.452175 11.136641-5.452176 17.615192 0 15.009855 10.624988 27.568892 24.606421 30.807657 2.251274 0.474814 4.700045 0.788969 7.070023 0.788969 2.52859 0 4.936429-0.354064 7.347338-0.947582l139.383514 399.589815c9.045003-13.033851 29.78128-23.421432 62.208831-31.636535 44.471864-10.979052 112.170732-17.73492 206.804043-17.73492 134.329405 0.038886 203.607234 11.927657 239.904928 25.713639 16.152888 6.002714 25.791409 12.834306 31.636534 19.1962l137.765667-395.127175c2.408863 0.593518 4.818749 0.947582 7.385201 0.947581 2.368954 0 4.777817-0.314155 6.991228-0.788969 14.099113-3.239787 24.567535-15.758915 24.567535-30.807656 0-6.480598-2.01489-12.561084-5.334495-17.61724zM293.567617 362.92066c-2.053776 87.919399-11.809977 135.986137-22.552645 162.214498 29.899984 21.445428 55.414077 32.467459 76.387761 32.8205 10.387581-0.354064 21.287839-8.650007 32.624025-24.407899-36.69269-43.36874-63.511499-124.178207-76.82369-170.706917 12.522198-2.448772 21.843494-13.507642 21.843494-26.659173 0-14.969946-12.046361-27.136034-27.055192-27.136034s-27.096125 12.166087-27.096125 27.136034c0.002047 13.545504 9.837042 24.566512 22.672372 26.738991zM672.858106 556.296879c17.377786-0.237407 37.916565-7.899924 61.33595-22.672372-12.362562-23.106254-24.841781-71.448262-27.211758-171.968654 14.810311-0.157589 26.818809-12.244882 26.818809-27.095101 0-15.048741-12.20702-27.136034-27.252691-27.136034-14.931061 0-27.056216 12.087293-27.056216 27.136034 0 11.809977 7.54279 21.762653 18.050098 25.474184-11.731182 41.788755-34.876322 112.212688-66.355267 157.830655 14.653745 25.001417 28.636201 38.036291 41.671075 38.431288z" /></svg>